<svg width="183" height="213" viewBox="0 0 183 213" fill="none" xmlns="http://www.w3.org/2000/svg">
<path fill-rule="evenodd" clip-rule="evenodd" d="M182.776 106.5C182.776 165.315 135.143 213 76.3908 213C52.6572 213 30.7336 205.216 13.0396 192.07C16.0687 193.771 19.19 195.305 22.4038 196.692C34.5753 201.943 47.6888 204.661 60.9501 204.661C85.6441 204.661 109.415 195.305 127.515 178.517C145.615 161.728 156.734 138.709 158.618 114.062C158.877 111.733 159.024 109.403 159.061 107.073C159.061 104.096 158.821 100.657 158.507 97.5141C158.489 97.2182 158.47 96.9039 158.452 96.6081C158.452 96.2568 158.433 95.9055 158.396 95.5727L158.304 95.6651C157.861 91.5789 157.399 88.4357 157.399 88.4357H80.214L74.2114 99.6773L60.4329 125.748H118.76C116.599 132.201 113.367 138.265 109.211 143.664C103.541 151.097 96.2457 157.106 87.8605 161.248C79.4937 165.389 70.2773 167.553 60.9316 167.534C53.7838 167.534 46.6915 166.24 39.987 163.762C28.2587 159.473 18.1373 151.689 10.9895 141.445C3.8417 131.184 0 118.999 0 106.5C0 98.494 1.56993 90.5435 4.6359 83.1477C7.70188 75.7518 12.19 69.0216 17.8418 63.3453C23.4935 57.6875 30.2165 53.176 37.6228 50.1253C45.0292 47.0745 52.9527 45.4844 60.9501 45.4844C73.8604 45.4659 86.4568 49.5706 96.8737 57.2068L104.871 42.2117L114.401 24.1844C98.499 13.8117 79.9185 8.30182 60.9316 8.32031C44.1426 8.32031 27.7969 12.6469 13.3351 20.6714C31.0107 7.69167 52.8049 0 76.3908 0C135.143 0 182.776 47.6846 182.776 106.5Z" fill="#FF4C00"/>
</svg>
